<svg version="1.1" id="Layer_1" xmlns="http://www.w3.org/2000/svg" xmlns:xlink="http://www.w3.org/1999/xlink" x="0px" y="0px"
	 width="100%" viewBox="0 0 600 428" enable-background="new 0 0 600 428" xml:space="preserve">
<path fill="#000000" opacity="1.000000" stroke="none" 
	d="
M326.000000,429.000000 
	C217.359619,429.000000 109.219238,429.000000 1.039428,429.000000 
	C1.039428,286.394287 1.039428,143.788574 1.039428,1.091432 
	C200.890411,1.091432 400.780853,1.091432 600.835693,1.091432 
	C600.835693,143.666519 600.835693,286.333252 600.835693,429.000000 
	C509.455200,429.000000 417.977600,429.000000 326.000000,429.000000 
M350.175659,84.272964 
	C350.154175,86.834717 350.132690,89.396477 349.945251,92.605003 
	C349.923065,93.049568 349.900879,93.494133 349.248322,94.377113 
	C348.071838,103.879662 343.816772,111.257393 334.940155,115.635063 
	C333.718933,116.237312 332.970703,117.798576 332.003510,118.915855 
	C333.388062,119.936508 334.697266,121.674835 336.172668,121.829697 
	C339.326782,122.160751 342.566925,121.672256 345.771790,121.515442 
	C345.821014,130.757172 333.680511,143.103394 324.898499,144.975189 
	C323.486237,145.276199 322.308655,146.678467 321.022583,147.571655 
	C322.059021,149.058380 322.796509,151.035080 324.212799,151.899277 
	C325.745697,152.834641 327.911987,152.732056 330.209015,153.770599 
	C333.189270,153.643784 336.169495,153.516968 339.664093,154.120682 
	C335.035034,166.173309 325.403809,172.260529 313.743439,176.028503 
	C312.369751,176.472382 311.254272,177.715363 310.019104,178.587906 
	C311.234650,179.760239 312.277588,181.635361 313.695557,181.983658 
	C319.941162,183.517776 326.294952,184.611542 332.620422,185.867020 
	C331.776215,187.769150 330.866028,189.819916 329.321533,192.127838 
	C322.319824,200.010391 312.263672,202.021225 303.182129,205.602997 
	C303.182129,207.056686 303.182129,208.347870 303.182129,209.441986 
	C304.892609,210.066925 306.365509,211.031036 307.864685,211.073837 
	C312.587311,211.208694 317.010010,216.363205 322.812958,212.021103 
	C325.263855,212.675888 327.714783,213.330673 329.875763,214.631378 
	C329.599213,215.429962 329.322693,216.228531 328.403076,217.494202 
	C324.511169,218.053574 311.528137,228.171753 306.203827,231.945450 
	C305.463562,232.001877 304.723328,232.058319 303.487213,232.019882 
	C303.345917,232.111313 303.204620,232.202728 302.231415,232.263428 
	C300.239044,232.497345 298.213959,232.585037 296.266571,233.020279 
	C295.107239,233.279358 294.069977,234.084763 292.977844,234.644562 
	C294.162201,235.436172 295.352905,236.903427 296.529724,236.892380 
	C300.026794,236.859573 303.518372,236.245056 307.699890,235.981857 
	C311.807220,235.595886 315.914551,235.209930 320.021912,234.823975 
	C320.121643,235.433823 320.221405,236.043671 320.321167,236.653519 
	C314.599060,238.384674 308.876984,240.115845 303.072266,241.871994 
	C302.575867,245.207870 303.810303,246.664276 307.561829,245.730377 
	C308.818512,245.417526 310.387024,245.594391 311.615509,246.063995 
	C316.810791,248.049957 321.911438,248.886475 327.646240,245.825043 
	C330.895264,246.379288 334.867004,249.081528 336.722412,243.071564 
	C339.760284,242.115234 342.798157,241.158920 346.805542,239.897400 
	C347.013794,249.155289 347.560486,258.546539 345.053680,267.964355 
	C343.702209,268.013489 342.350769,268.062622 340.263000,267.712830 
	C334.567200,267.156677 328.882111,266.411896 323.173157,266.087555 
	C314.101318,265.572083 305.005920,264.924133 295.934570,265.092590 
	C285.547424,265.285461 275.157745,266.109772 264.803711,267.042877 
	C258.157440,267.641815 251.573425,268.932281 244.101868,269.985535 
	C238.477570,270.990692 232.807144,271.791138 227.239166,273.046173 
	C217.456207,275.251282 207.735962,277.734528 197.433121,280.042816 
	C197.231339,280.344025 197.029556,280.645233 196.115509,280.967468 
	C195.406860,281.011993 194.698212,281.056519 193.437256,281.033478 
	C193.220657,281.317078 193.004059,281.600647 192.873505,281.884949 
	C192.873505,281.884949 192.858765,281.800171 192.072952,281.917084 
	C188.699051,282.936829 185.281113,283.831268 181.959259,284.999054 
	C170.619751,288.985504 159.314041,293.068115 147.229065,296.928467 
	C128.564194,303.694489 109.899323,310.460510 91.234451,317.226532 
	C92.847984,317.935089 94.329124,318.023956 95.647141,317.602600 
	C107.269257,313.887024 118.896896,310.182465 130.450439,306.261139 
	C136.814697,304.101044 143.040009,301.531586 150.104477,299.090454 
	C150.926483,299.030518 151.809830,299.146301 152.561157,298.883972 
	C161.555481,295.742920 170.519028,292.513733 179.514343,289.375549 
	C184.741272,287.552032 190.010941,285.850952 196.081146,284.040558 
	C200.046661,283.233246 204.025726,282.486816 207.975204,281.607452 
	C220.992676,278.709106 233.999420,275.762604 247.830597,272.973480 
	C261.239594,271.655029 274.624817,269.926575 288.065063,269.146606 
	C299.003601,268.511841 310.013702,268.798950 320.981140,269.090057 
	C327.664948,269.267456 334.328003,270.227081 341.866272,270.978119 
	C350.576691,272.253815 359.287109,273.529510 368.842224,274.997803 
	C369.673798,275.003784 370.530182,274.880554 371.333221,275.034943 
	C385.708130,277.798950 400.072327,280.618317 414.448608,283.375092 
	C419.397430,284.324036 424.353760,285.268555 429.340454,285.977142 
	C436.629333,287.012939 443.933746,287.986267 451.258972,288.707764 
	C460.110138,289.579559 468.989899,290.160583 478.600037,291.001831 
	C492.700592,291.337280 506.824310,292.339386 520.896179,291.850098 
	C541.401978,291.137115 561.871338,289.365906 582.353882,288.009705 
	C586.317444,287.747253 590.270081,287.318848 594.227722,286.967010 
	C593.030457,285.972687 591.906860,285.927094 590.787842,285.979614 
	C576.720276,286.640045 562.652161,287.290222 548.586853,287.996002 
	C541.624084,288.345367 534.671387,288.932831 527.705872,289.176819 
	C520.576050,289.426514 513.431213,289.596008 506.301971,289.425049 
	C496.540039,289.191040 486.786560,288.602631 476.124603,288.016266 
	C473.308563,287.967041 470.458984,288.178192 467.682617,287.820801 
	C458.600281,286.651611 449.525055,285.397064 440.484253,283.944275 
	C431.671967,282.528229 422.920166,280.738312 414.113281,279.285614 
	C408.658630,278.385925 403.150787,277.809021 397.263855,276.248016 
	C404.870117,274.501251 412.450714,272.631409 420.089294,271.039825 
	C429.028534,269.177277 438.018250,267.557159 447.816406,265.932861 
	C451.809204,265.277802 455.802002,264.622711 459.794800,263.967651 
	C455.160126,261.366272 450.996338,262.473175 446.113190,264.868988 
	C443.646057,264.954376 441.127441,264.748138 438.720184,265.172913 
	C424.134003,267.746826 409.573242,270.464783 394.209534,272.985657 
	C393.136017,273.029877 392.062469,273.074127 390.302338,273.051544 
	C389.945831,273.314758 389.589355,273.577942 388.442505,273.767242 
	C386.212585,273.580048 383.970337,273.484344 381.755280,273.186615 
	C377.161865,272.569244 372.582886,271.844543 367.189392,271.025421 
	C364.927948,270.658386 362.469971,270.718353 360.464417,269.795319 
	C358.720581,268.992706 356.303558,267.139709 356.226929,265.646088 
	C355.811310,257.543060 356.029663,249.407501 356.029663,240.715332 
	C357.525116,241.237549 358.547668,241.561890 359.546051,241.948563 
	C366.021210,244.456482 372.408081,247.243179 379.020020,249.311722 
	C380.709595,249.840302 383.862183,248.716080 385.010712,247.283447 
	C387.028137,244.766968 388.919434,244.022034 391.711670,245.234116 
	C397.148376,247.594177 401.545532,244.433731 406.017456,242.331696 
	C407.077301,241.833496 408.010864,239.496887 407.769257,238.243744 
	C407.530273,237.004486 405.900818,235.737625 404.584290,235.059326 
	C401.129791,233.279449 397.466797,231.909058 393.972412,230.200500 
	C388.590210,227.568863 383.279449,224.791138 378.013123,221.302032 
	C377.352905,219.715134 376.692719,218.128235 375.820374,216.031464 
	C378.343353,216.031464 380.420410,216.449081 382.249268,215.952560 
	C387.581757,214.504837 392.931152,212.969620 398.013580,210.845688 
	C399.460846,210.240875 400.669617,207.522934 400.709290,205.745483 
	C400.729004,204.861481 397.964294,203.499084 396.275391,203.060226 
	C384.670746,200.044785 374.285889,195.364227 368.321991,183.629196 
	C370.282715,184.311493 372.166534,185.687485 373.689758,185.364212 
	C378.580658,184.326294 383.391632,182.810547 388.110168,181.132462 
	C389.307831,180.706528 390.047638,178.993164 390.997833,177.871384 
	C389.718353,176.920547 388.556976,175.701553 387.134644,175.075089 
	C384.232086,173.796616 380.895325,173.300491 378.272400,171.638016 
	C374.307922,169.125229 370.800659,165.891083 366.759491,162.330307 
	C364.084961,159.827713 362.490479,156.960617 363.312958,153.136841 
	C364.798218,153.136841 365.931854,153.136841 367.966614,153.065109 
	C370.456909,153.048477 373.216187,153.702515 375.367188,152.839890 
	C377.871552,151.835541 379.843567,149.503784 382.046570,147.748062 
	C380.327789,146.401291 378.649017,144.998322 376.872009,143.733368 
	C376.078430,143.168472 375.079620,142.897049 374.187256,142.464951 
	C365.904968,138.454620 361.100647,131.763870 359.250366,122.269142 
	C359.852692,122.093414 360.455048,121.917694 361.778503,122.025352 
	C364.072235,121.938660 366.493439,122.266983 368.613678,121.615608 
	C369.968903,121.199265 371.885498,119.203629 371.748383,118.150719 
	C371.552765,116.648582 369.962280,114.607063 368.518707,114.116257 
	C362.967926,112.229065 359.326721,108.555397 357.248993,103.297775 
	C356.202545,100.649765 355.718750,97.779411 355.055359,94.250763 
	C355.004364,93.493652 354.953369,92.736549 355.012115,91.124840 
	C354.620087,88.560631 354.589630,85.864235 353.716400,83.475967 
	C353.071167,81.711273 351.376831,80.700539 350.866608,83.879875 
	C350.866608,83.879875 350.871979,83.789017 350.175659,84.272964 
z"/>
<path fill="#C7C6C1" opacity="1.000000" stroke="none" 
	d="
M377.938354,222.075409 
	C383.279449,224.791138 388.590210,227.568863 393.972412,230.200500 
	C397.466797,231.909058 401.129791,233.279449 404.584290,235.059326 
	C405.900818,235.737625 407.530273,237.004486 407.769257,238.243744 
	C408.010864,239.496887 407.077301,241.833496 406.017456,242.331696 
	C401.545532,244.433731 397.148376,247.594177 391.711670,245.234116 
	C388.919434,244.022034 387.028137,244.766968 385.010712,247.283447 
	C383.862183,248.716080 380.709595,249.840302 379.020020,249.311722 
	C372.408081,247.243179 366.021210,244.456482 359.546051,241.948563 
	C358.547668,241.561890 357.525116,241.237549 356.029663,240.715332 
	C356.029663,249.407501 355.811310,257.543060 356.226929,265.646088 
	C356.303558,267.139709 358.720581,268.992706 360.464417,269.795319 
	C362.469971,270.718353 364.927948,270.658386 367.593689,271.458801 
	C367.997833,272.863190 367.997681,273.834198 367.997528,274.805176 
	C359.287109,273.529510 350.576691,272.253815 341.433136,270.566315 
	C340.999756,269.473602 340.999542,268.792694 340.999298,268.111786 
	C342.350769,268.062622 343.702209,268.013489 345.822357,268.019409 
	C347.776733,268.363892 348.962402,268.653320 350.564606,268.962830 
	C351.662476,267.404388 352.897736,265.838104 352.932953,264.245270 
	C353.124207,255.591904 352.983032,246.931641 353.064636,238.274765 
	C353.074249,237.253281 353.572723,235.515808 354.149231,235.377182 
	C355.199951,235.124542 356.839233,235.446335 357.605988,236.181976 
	C363.816284,242.140137 371.065735,245.382751 380.021729,245.361679 
	C378.135559,243.003983 376.412109,240.849686 374.688660,238.695374 
	C384.653809,242.076324 394.154144,246.152588 405.253876,238.749634 
	C402.879517,237.907822 401.649017,237.168243 400.367645,237.065857 
	C391.179962,236.331848 381.944611,236.030212 372.808838,234.905579 
	C369.897125,234.547150 367.241058,232.112152 364.467987,230.627319 
	C364.692627,230.287674 364.917236,229.948029 365.141876,229.608383 
	C373.762451,230.968079 382.383026,232.327774 391.003601,233.687469 
	C391.135681,233.192169 391.267761,232.696884 391.399841,232.201584 
	C389.613708,231.196716 387.653900,230.407486 386.079590,229.139587 
	C383.281494,226.886047 380.716980,224.342484 378.031128,221.963135 
	C378.007477,222.006027 377.938354,222.075394 377.938354,222.075409 
z"/>
<path fill="#C9C7C3" opacity="1.000000" stroke="none" 
	d="
M367.099091,162.963486 
	C370.800659,165.891083 374.307922,169.125229 378.272400,171.638016 
	C380.895325,173.300491 384.232086,173.796616 387.134644,175.075089 
	C388.556976,175.701553 389.718353,176.920547 390.997833,177.871368 
	C390.047638,178.993164 389.307831,180.706528 388.110168,181.132462 
	C383.391632,182.810547 378.580658,184.326294 373.689758,185.364212 
	C372.166534,185.687485 370.282715,184.311493 368.321991,183.629196 
	C374.285889,195.364227 384.670746,200.044785 396.275391,203.060226 
	C397.964294,203.499084 400.729004,204.861481 400.709290,205.745483 
	C400.669617,207.522934 399.460846,210.240875 398.013580,210.845688 
	C392.931152,212.969620 387.581757,214.504837 382.249268,215.952560 
	C380.420410,216.449081 378.343353,216.031464 375.820374,216.031464 
	C376.692719,218.128235 377.352905,219.715134 377.975739,221.688721 
	C377.938354,222.075394 378.007477,222.006027 377.678101,222.019104 
	C374.046265,219.098312 370.743805,216.164459 367.441315,213.230591 
	C367.682312,212.674011 367.923279,212.117416 368.164246,211.560822 
	C372.438599,211.560822 376.712921,211.560822 380.987274,211.560822 
	C375.075287,207.785553 366.853485,213.034058 361.886230,205.236038 
	C373.747711,206.110092 385.009827,206.939972 396.271912,207.769852 
	C396.291199,207.285858 396.310486,206.801865 396.329773,206.317871 
	C394.559845,206.061432 392.561462,206.249908 391.056702,205.477142 
	C380.398224,200.003510 369.524200,194.748642 363.176392,183.979355 
	C366.060425,182.492813 368.576019,181.083389 371.493073,179.740799 
	C375.885498,179.807632 379.876465,179.807632 383.030579,179.807632 
	C376.952576,174.529831 370.955963,169.322647 365.167633,163.881042 
	C365.950317,163.418900 366.524719,163.191193 367.099091,162.963486 
z"/>
<path fill="#C9C8C3" opacity="1.000000" stroke="none" 
	d="
M329.802002,153.082184 
	C327.911987,152.732056 325.745697,152.834641 324.212799,151.899277 
	C322.796509,151.035080 322.059021,149.058380 321.022583,147.571655 
	C322.308655,146.678467 323.486237,145.276199 324.898499,144.975189 
	C333.680511,143.103394 345.821014,130.757172 345.771790,121.517456 
	C342.566925,121.672256 339.326782,122.160751 336.172668,121.829697 
	C334.697266,121.674835 333.388062,119.936508 332.003510,118.915848 
	C332.970703,117.798576 333.718933,116.237312 334.940155,115.635063 
	C343.816772,111.257393 348.071838,103.879662 349.874084,94.193024 
	C351.993408,94.342491 353.486969,94.676048 354.980499,95.009605 
	C355.718750,97.779411 356.202545,100.649765 357.248993,103.297775 
	C359.326721,108.555397 362.967926,112.229065 368.518707,114.116257 
	C369.962280,114.607063 371.552765,116.648582 371.748383,118.150719 
	C371.885498,119.203629 369.968903,121.199265 368.613678,121.615608 
	C366.493439,122.266983 364.072235,121.938660 361.643188,121.720047 
	C362.204926,120.721245 365.415009,121.570435 363.397766,118.944244 
	C364.830139,118.824684 365.872589,118.732231 366.915009,118.639786 
	C367.166870,118.287445 367.418701,117.935104 367.670563,117.582764 
	C359.340515,113.506111 353.979218,107.058441 351.618347,98.162758 
	C351.637848,108.230934 344.336273,112.748268 337.692444,117.701050 
	C337.915527,118.059006 338.138641,118.416962 338.361725,118.774918 
	C341.621277,118.211258 344.880829,117.647606 348.831238,116.964493 
	C349.204193,118.640030 350.189331,120.541695 349.912048,122.236855 
	C348.327850,131.921722 338.298828,144.661697 327.528931,147.109970 
	C326.834412,147.267853 326.395874,148.551727 325.495117,149.779572 
	C328.046539,149.947495 329.524902,150.044800 330.986053,150.476196 
	C330.579895,151.567612 330.190948,152.324890 329.802002,153.082184 
z"/>
<path fill="#C5C4C0" opacity="1.000000" stroke="none" 
	d="
M368.419861,274.901489 
	C367.997681,273.834198 367.997833,272.863190 367.997986,271.528107 
	C372.582886,271.844543 377.161865,272.569244 381.755280,273.186615 
	C383.970337,273.484344 386.212585,273.580048 389.155884,273.744171 
	C390.242462,273.520203 390.615692,273.319275 390.988953,273.118347 
	C392.062469,273.074127 393.136017,273.029877 394.608185,273.415405 
	C395.893494,274.925842 396.780151,276.006531 397.666809,277.087219 
	C403.150787,277.809021 408.658630,278.385925 414.113281,279.285614 
	C422.920166,280.738312 431.671967,282.528229 440.484253,283.944275 
	C449.525055,285.397064 458.600281,286.651611 467.682617,287.820801 
	C470.458984,288.178192 473.308563,287.967041 476.722839,288.415405 
	C477.499786,289.498871 477.678558,290.183167 477.857300,290.867462 
	C468.989899,290.160583 460.110138,289.579559 451.258972,288.707764 
	C443.933746,287.986267 436.629333,287.012939 429.340454,285.977142 
	C424.353760,285.268555 419.397430,284.324036 414.448608,283.375092 
	C400.072327,280.618317 385.708130,277.798950 371.333221,275.034943 
	C370.530182,274.880554 369.673798,275.003784 368.419861,274.901489 
z"/>
<path fill="#C2C0BB" opacity="1.000000" stroke="none" 
	d="
M329.955841,191.870697 
	C330.866028,189.819916 331.776215,187.769150 332.620422,185.867020 
	C326.294952,184.611542 319.941162,183.517776 313.695557,181.983658 
	C312.277588,181.635361 311.234650,179.760239 310.019104,178.587921 
	C311.254272,177.715363 312.369751,176.472382 313.743439,176.028503 
	C325.403809,172.260529 335.035034,166.173309 339.435181,153.663116 
	C339.206299,153.205551 339.545685,153.051773 339.967712,153.075790 
	C340.928375,151.992676 341.434692,150.868286 342.013702,149.782700 
	C342.780487,148.345200 343.604095,146.938034 344.403290,145.517853 
	C344.886963,145.775742 345.370636,146.033646 345.854309,146.291550 
	C348.069214,154.773026 341.736359,159.955765 337.075378,165.129135 
	C332.197937,170.542770 325.881378,174.659836 320.443085,179.138367 
	C328.913055,185.062988 337.374786,179.813263 346.013458,177.717590 
	C345.959198,181.651810 344.747894,182.824829 341.589722,183.239822 
	C339.597931,183.501572 337.626312,185.636887 336.108887,187.343643 
	C334.298523,189.379898 332.983429,191.856445 331.163269,193.941208 
	C330.567108,193.117004 330.261475,192.493851 329.955841,191.870697 
z"/>
<path fill="#C7C6C1" opacity="1.000000" stroke="none" 
	d="
M340.631165,267.912292 
	C340.999542,268.792694 340.999756,269.473602 341.000183,270.494934 
	C334.328003,270.227081 327.664948,269.267456 320.981140,269.090057 
	C310.013702,268.798950 299.003601,268.511841 288.065063,269.146606 
	C274.624817,269.926575 261.239594,271.655029 247.342758,272.611145 
	C246.223785,271.470154 245.592636,270.691437 244.961502,269.912781 
	C251.573425,268.932281 258.157440,267.641815 264.803711,267.042877 
	C275.157745,266.109772 285.547424,265.285461 295.934570,265.092590 
	C305.005920,264.924133 314.101318,265.572083 323.173157,266.087555 
	C328.882111,266.411896 334.567200,267.156677 340.631165,267.912292 
z"/>
<path fill="#CDCBC7" opacity="1.000000" stroke="none" 
	d="
M478.228668,290.934631 
	C477.678558,290.183167 477.499786,289.498871 477.175262,288.490326 
	C486.786560,288.602631 496.540039,289.191040 506.301971,289.425049 
	C513.431213,289.596008 520.576050,289.426514 527.705872,289.176819 
	C534.671387,288.932831 541.624084,288.345367 548.586853,287.996002 
	C562.652161,287.290222 576.720276,286.640045 590.787842,285.979614 
	C591.906860,285.927094 593.030457,285.972687 594.227722,286.967010 
	C590.270081,287.318848 586.317444,287.747253 582.353882,288.009705 
	C561.871338,289.365906 541.401978,291.137115 520.896179,291.850098 
	C506.824310,292.339386 492.700592,291.337280 478.228668,290.934631 
z"/>
<path fill="#CBC9C4" opacity="1.000000" stroke="none" 
	d="
M326.981018,245.780731 
	C321.911438,248.886475 316.810791,248.049957 311.615509,246.063995 
	C310.387024,245.594391 308.818512,245.417526 307.561829,245.730377 
	C303.810303,246.664276 302.575867,245.207870 303.072266,241.871994 
	C308.876984,240.115845 314.599060,238.384674 320.321167,236.653519 
	C320.221405,236.043671 320.121643,235.433823 320.021912,234.823975 
	C315.914551,235.209930 311.807220,235.595886 307.345886,235.521332 
	C306.976288,233.997772 306.960693,232.934723 306.945129,231.871689 
	C311.528137,228.171753 324.511169,218.053574 328.693878,217.247269 
	C328.984680,217.000336 328.925262,216.976303 328.622559,217.150482 
	C323.724335,221.802200 319.128815,226.279724 314.237091,231.045853 
	C317.814270,231.045853 321.404022,231.045853 325.010071,231.416473 
	C325.732727,232.873550 326.439087,233.960022 326.980164,235.377197 
	C322.984283,237.911499 319.153687,240.115051 314.049500,243.051270 
	C318.315460,243.051270 321.163239,243.051270 324.218933,243.273468 
	C325.278198,244.257370 326.129608,245.019058 326.981018,245.780731 
z"/>
<path fill="#BCBCB8" opacity="1.000000" stroke="none" 
	d="
M244.531677,269.949158 
	C245.592636,270.691437 246.223785,271.470154 246.932587,272.541748 
	C233.999420,275.762604 220.992676,278.709106 207.975204,281.607452 
	C204.025726,282.486816 200.046661,283.233246 195.327042,283.971741 
	C194.001556,283.201996 193.430161,282.501099 192.858765,281.800171 
	C192.858765,281.800171 192.873505,281.884949 193.060150,281.801392 
	C193.552490,281.582214 193.800079,281.376617 193.989563,281.101013 
	C194.698212,281.056519 195.406860,281.011993 196.693527,280.856750 
	C197.566910,280.593567 197.806213,280.378632 197.989441,280.101288 
	C207.735962,277.734528 217.456207,275.251282 227.239166,273.046173 
	C232.807144,271.791138 238.477570,270.990692 244.531677,269.949158 
z"/>
<path fill="#CBC9C4" opacity="1.000000" stroke="none" 
	d="
M329.638672,191.999268 
	C330.261475,192.493851 330.567108,193.117004 330.965515,194.232910 
	C325.666565,198.261215 320.274872,201.796783 314.357910,205.676804 
	C316.825958,206.594162 318.911163,207.369217 321.009460,208.477585 
	C321.344360,209.863098 321.666168,210.915298 321.988007,211.967499 
	C317.010010,216.363205 312.587311,211.208694 307.864685,211.073837 
	C306.365509,211.031036 304.892609,210.066925 303.182129,209.441986 
	C303.182129,208.347870 303.182129,207.056686 303.182129,205.602997 
	C312.263672,202.021225 322.319824,200.010391 329.638672,191.999268 
z"/>
<path fill="#C3C2BD" opacity="1.000000" stroke="none" 
	d="
M359.124664,122.897461 
	C361.100647,131.763870 365.904968,138.454620 374.187256,142.464951 
	C375.079620,142.897049 376.078430,143.168472 376.872009,143.733368 
	C378.649017,144.998322 380.327789,146.401291 382.046570,147.748077 
	C379.843567,149.503784 377.871552,151.835541 375.367188,152.839890 
	C373.216187,153.702515 370.456909,153.048477 367.310669,152.872040 
	C364.371857,151.748169 364.137115,150.487518 366.489502,148.887756 
	C369.910278,148.893402 372.884827,148.893402 375.859406,148.893402 
	C375.921539,148.446960 375.983673,148.000519 376.045807,147.554092 
	C374.386353,146.599457 372.610748,145.800278 371.088104,144.662521 
	C365.376160,140.394424 359.705017,136.053146 357.415894,128.875381 
	C358.164062,126.831818 358.571106,124.924583 359.014771,122.987328 
	C359.051331,122.957306 359.124664,122.897461 359.124664,122.897461 
z"/>
<path fill="#CBC9C4" opacity="1.000000" stroke="none" 
	d="
M149.327972,299.146698 
	C143.040009,301.531586 136.814697,304.101044 130.450439,306.261139 
	C118.896896,310.182465 107.269257,313.887024 95.647141,317.602600 
	C94.329124,318.023956 92.847984,317.935089 91.234451,317.226532 
	C109.899323,310.460510 128.564194,303.694489 147.687088,297.328125 
	C148.539398,298.200775 148.933685,298.673737 149.327972,299.146698 
z"/>
<path fill="#C3C2BD" opacity="1.000000" stroke="none" 
	d="
M149.716217,299.118591 
	C148.933685,298.673737 148.539398,298.200775 148.070282,297.420898 
	C159.314041,293.068115 170.619751,288.985504 181.959259,284.999054 
	C185.281113,283.831268 188.699051,282.936829 192.465851,281.858643 
	C193.430161,282.501099 194.001556,283.201996 194.917160,283.998840 
	C190.010941,285.850952 184.741272,287.552032 179.514343,289.375549 
	C170.519028,292.513733 161.555481,295.742920 152.561157,298.883972 
	C151.809830,299.146301 150.926483,299.030518 149.716217,299.118591 
z"/>
<path fill="#CBC9C4" opacity="1.000000" stroke="none" 
	d="
M397.465332,276.667603 
	C396.780151,276.006531 395.893494,274.925842 395.005402,273.489868 
	C409.573242,270.464783 424.134003,267.746826 438.720184,265.172913 
	C441.127441,264.748138 443.646057,264.954376 446.550812,265.154480 
	C446.988434,265.439972 446.986084,265.831848 446.986084,265.831848 
	C438.018250,267.557159 429.028534,269.177277 420.089294,271.039825 
	C412.450714,272.631409 404.870117,274.501251 397.465332,276.667603 
z"/>
<path fill="#C7C6C1" opacity="1.000000" stroke="none" 
	d="
M350.148102,268.942749 
	C348.962402,268.653320 347.776733,268.363892 346.228516,268.012390 
	C347.560486,258.546539 347.013794,249.155289 346.805542,239.897400 
	C342.798157,241.158920 339.760284,242.115234 336.345154,243.091644 
	C335.967926,243.111725 336.049316,243.061310 336.210938,242.761444 
	C340.193176,239.994293 344.013824,237.527023 349.062439,234.266739 
	C351.252167,246.335526 349.460571,257.719360 350.148102,268.942749 
z"/>
<path fill="#CBC9C4" opacity="1.000000" stroke="none" 
	d="
M366.043243,148.882111 
	C364.137115,150.487518 364.371857,151.748169 366.860107,152.907913 
	C365.931854,153.136841 364.798218,153.136841 363.312958,153.136841 
	C362.490479,156.960617 364.084961,159.827713 366.929291,162.646896 
	C366.524719,163.191193 365.950317,163.418900 364.839447,163.733917 
	C358.477264,158.873367 359.132385,151.872757 358.278656,144.902115 
	C361.057983,146.326736 363.550598,147.604416 366.043243,148.882111 
z"/>
<path fill="#C5C4C0" opacity="1.000000" stroke="none" 
	d="
M322.400482,211.994293 
	C321.666168,210.915298 321.344360,209.863098 321.316437,208.357681 
	C321.904327,207.355316 322.217865,206.318771 322.489288,206.329666 
	C326.992554,206.510605 331.490540,206.822922 335.910645,207.430786 
	C333.942932,209.832275 332.054291,211.908859 330.165680,213.985474 
	C327.714783,213.330673 325.263855,212.675888 322.400482,211.994293 
z"/>
<path fill="#B7B6B1" opacity="1.000000" stroke="none" 
	d="
M330.020721,214.308411 
	C332.054291,211.908859 333.942932,209.832275 336.269257,207.356659 
	C339.817352,206.580704 341.307587,200.470978 346.346283,204.614120 
	C341.117188,208.904419 336.240784,212.959503 331.271851,216.897827 
	C330.778717,217.288681 329.720947,216.967178 328.925262,216.976303 
	C328.925262,216.976303 328.984680,217.000336 329.015442,217.013718 
	C329.322693,216.228531 329.599213,215.429962 330.020721,214.308411 
z"/>
<path fill="#CDCBC7" opacity="1.000000" stroke="none" 
	d="
M339.545685,153.051773 
	C339.545685,153.051773 339.206299,153.205551 339.178040,153.297852 
	C336.169495,153.516968 333.189270,153.643784 330.005524,153.426392 
	C330.190948,152.324890 330.579895,151.567612 331.378296,150.464233 
	C332.562103,149.517044 333.270935,148.791183 334.125305,148.342422 
	C335.611267,147.561920 337.187012,146.952469 338.725128,146.271301 
	C339.144440,147.573517 339.722382,148.851273 339.928192,150.186401 
	C340.069061,151.100159 339.691498,152.093826 339.545685,153.051773 
z"/>
<path fill="#BCBCB8" opacity="1.000000" stroke="none" 
	d="
M306.574463,231.908569 
	C306.960693,232.934723 306.976288,233.997772 307.002014,235.459351 
	C303.518372,236.245056 300.026794,236.859573 296.529724,236.892380 
	C295.352905,236.903427 294.162201,235.436172 292.977844,234.644562 
	C294.069977,234.084763 295.107239,233.279358 296.266571,233.020279 
	C298.213959,232.585037 300.239044,232.497345 302.767059,232.358582 
	C303.604736,232.535706 303.831512,232.422699 303.983063,232.114746 
	C304.723328,232.058319 305.463562,232.001877 306.574463,231.908569 
z"/>
<path fill="#BCBCB8" opacity="1.000000" stroke="none" 
	d="
M327.313629,245.802887 
	C326.129608,245.019058 325.278198,244.257370 324.340149,242.902954 
	C328.185394,242.560577 332.117371,242.810944 336.049316,243.061310 
	C336.049316,243.061310 335.967926,243.111725 335.933777,243.079926 
	C334.867004,249.081528 330.895264,246.379288 327.313629,245.802887 
z"/>
<path fill="#BCBCB8" opacity="1.000000" stroke="none" 
	d="
M447.401245,265.882355 
	C446.986084,265.831848 446.988434,265.439972 446.999847,265.244354 
	C450.996338,262.473175 455.160126,261.366272 459.794800,263.967651 
	C455.802002,264.622711 451.809204,265.277802 447.401245,265.882355 
z"/>
<path fill="#C3C2BD" opacity="1.000000" stroke="none" 
	d="
M363.007843,118.971352 
	C365.415009,121.570435 362.204926,120.721245 361.282654,121.578354 
	C360.455048,121.917694 359.852692,122.093414 359.187500,122.583298 
	C359.124664,122.897461 359.051331,122.957306 358.691650,122.911224 
	C357.199951,121.574135 356.067902,120.283119 354.934692,118.590683 
	C357.954285,115.050140 360.320282,118.670647 363.007843,118.971352 
z"/>
<path fill="#ABA9A5" opacity="1.000000" stroke="none" 
	d="
M355.017944,94.630188 
	C353.486969,94.676048 351.993408,94.342491 350.189270,93.973816 
	C349.900879,93.494133 349.923065,93.049568 350.268066,91.963760 
	C350.684570,88.811348 350.778290,86.300186 350.871979,83.789017 
	C350.871979,83.789017 350.866608,83.879875 351.191559,84.008545 
	C352.025085,85.577766 352.464478,87.047852 353.063171,88.449936 
	C353.582611,89.666420 354.282349,90.805916 354.902374,91.979431 
	C354.953369,92.736549 355.004364,93.493652 355.017944,94.630188 
z"/>
<path fill="#C9C8C3" opacity="1.000000" stroke="none" 
	d="
M354.957275,91.552139 
	C354.282349,90.805916 353.582611,89.666420 353.063171,88.449936 
	C352.464478,87.047852 352.025085,85.577766 351.147308,83.997940 
	C351.376831,80.700539 353.071167,81.711273 353.716400,83.475967 
	C354.589630,85.864235 354.620087,88.560631 354.957275,91.552139 
z"/>
<path fill="#C9C8C3" opacity="1.000000" stroke="none" 
	d="
M350.523804,84.030991 
	C350.778290,86.300186 350.684570,88.811348 350.351044,91.640373 
	C350.132690,89.396477 350.154175,86.834717 350.523804,84.030991 
z"/>
<path fill="#CBC9C4" opacity="1.000000" stroke="none" 
	d="
M303.735138,232.067322 
	C303.831512,232.422699 303.604736,232.535706 303.183014,232.373932 
	C303.204620,232.202728 303.345917,232.111313 303.735138,232.067322 
z"/>
<path fill="#CBC9C4" opacity="1.000000" stroke="none" 
	d="
M390.645630,273.084961 
	C390.615692,273.319275 390.242462,273.520203 389.551056,273.781128 
	C389.589355,273.577942 389.945831,273.314758 390.645630,273.084961 
z"/>
<path fill="#C3C2BD" opacity="1.000000" stroke="none" 
	d="
M197.711273,280.072052 
	C197.806213,280.378632 197.566910,280.593567 197.049667,280.846252 
	C197.029556,280.645233 197.231339,280.344025 197.711273,280.072052 
z"/>
<path fill="#C3C2BD" opacity="1.000000" stroke="none" 
	d="
M193.713409,281.067261 
	C193.800079,281.376617 193.552490,281.582214 193.017120,281.801025 
	C193.004059,281.600647 193.220657,281.317078 193.713409,281.067261 
z"/>
<path fill="#030303" opacity="1.000000" stroke="none" 
	d="
M363.397766,118.944244 
	C360.320282,118.670647 357.954285,115.050140 354.738556,118.864136 
	C355.387299,122.696571 356.231049,125.854141 357.074768,129.011703 
	C359.705017,136.053146 365.376160,140.394424 371.088104,144.662521 
	C372.610748,145.800278 374.386353,146.599457 376.045807,147.554092 
	C375.983673,148.000519 375.921539,148.446960 375.859406,148.893402 
	C372.884827,148.893402 369.910278,148.893402 366.489502,148.887756 
	C363.550598,147.604416 361.057983,146.326736 358.278656,144.902115 
	C359.132385,151.872757 358.477264,158.873367 364.631134,163.968353 
	C370.955963,169.322647 376.952576,174.529831 383.030579,179.807632 
	C379.876465,179.807632 375.885498,179.807632 371.214233,179.465393 
	C368.417358,179.063629 366.300842,179.004089 364.074097,178.696472 
	C363.651428,178.333359 363.338959,178.218338 362.691071,178.015167 
	C361.899139,177.989655 361.442627,178.052307 360.643341,178.157898 
	C360.519958,179.178497 360.739380,180.156174 360.974792,181.446930 
	C361.596466,182.525513 362.202209,183.290985 362.807953,184.056473 
	C369.524200,194.748642 380.398224,200.003510 391.056702,205.477142 
	C392.561462,206.249908 394.559845,206.061432 396.329773,206.317871 
	C396.310486,206.801865 396.291199,207.285858 396.271912,207.769852 
	C385.009827,206.939972 373.747711,206.110092 361.886230,205.236038 
	C366.853485,213.034058 375.075287,207.785553 380.987274,211.560822 
	C376.712921,211.560822 372.438599,211.560822 368.164246,211.560822 
	C367.923279,212.117416 367.682312,212.674011 367.441315,213.230591 
	C370.743805,216.164459 374.046265,219.098312 377.701721,221.976212 
	C380.716980,224.342484 383.281494,226.886047 386.079590,229.139587 
	C387.653900,230.407486 389.613708,231.196716 391.399841,232.201584 
	C391.267761,232.696884 391.135681,233.192169 391.003601,233.687469 
	C382.383026,232.327774 373.762451,230.968079 365.141876,229.608383 
	C364.917236,229.948029 364.692627,230.287674 364.467987,230.627319 
	C367.241058,232.112152 369.897125,234.547150 372.808838,234.905579 
	C381.944611,236.030212 391.179962,236.331848 400.367645,237.065857 
	C401.649017,237.168243 402.879517,237.907822 405.253876,238.749634 
	C394.154144,246.152588 384.653809,242.076324 374.688660,238.695374 
	C376.412109,240.849686 378.135559,243.003983 380.021729,245.361679 
	C371.065735,245.382751 363.816284,242.140137 357.605988,236.181976 
	C356.839233,235.446335 355.199951,235.124542 354.149231,235.377182 
	C353.572723,235.515808 353.074249,237.253281 353.064636,238.274765 
	C352.983032,246.931641 353.124207,255.591904 352.932953,264.245270 
	C352.897736,265.838104 351.662476,267.404388 350.564606,268.962830 
	C349.460571,257.719360 351.252167,246.335526 349.062439,234.266739 
	C344.013824,237.527023 340.193176,239.994293 336.210938,242.761444 
	C332.117371,242.810944 328.185394,242.560577 324.132233,242.680740 
	C321.163239,243.051270 318.315460,243.051270 314.049500,243.051270 
	C319.153687,240.115051 322.984283,237.911499 327.349854,235.373566 
	C330.585785,234.250656 333.286743,233.462112 336.335266,232.788467 
	C339.562653,231.410629 342.442505,229.917908 345.322357,228.425186 
	C344.978485,227.744171 344.634644,227.063156 344.290771,226.382141 
	C341.526184,227.632446 338.761627,228.882736 335.680908,229.994598 
	C332.947601,229.663315 330.532288,229.431992 328.111420,229.318985 
	C327.746490,229.301956 327.355743,229.837006 326.677063,230.094131 
	C326.101959,230.347885 325.826752,230.624176 325.392395,230.861359 
	C325.233307,230.822266 324.993805,231.045853 324.993805,231.045853 
	C321.404022,231.045853 317.814270,231.045853 314.237091,231.045853 
	C319.128815,226.279724 323.724335,221.802200 328.622559,217.150482 
	C329.720947,216.967178 330.778717,217.288681 331.271851,216.897827 
	C336.240784,212.959503 341.117188,208.904419 346.346283,204.614120 
	C341.307587,200.470978 339.817352,206.580704 336.348328,207.031738 
	C331.490540,206.822922 326.992554,206.510605 322.489288,206.329666 
	C322.217865,206.318771 321.904327,207.355316 321.303375,208.024368 
	C318.911163,207.369217 316.825958,206.594162 314.357910,205.676804 
	C320.274872,201.796783 325.666565,198.261215 331.256042,194.433960 
	C332.983429,191.856445 334.298523,189.379898 336.108887,187.343643 
	C337.626312,185.636887 339.597931,183.501572 341.589722,183.239822 
	C344.747894,182.824829 345.959198,181.651810 346.013458,177.717590 
	C337.374786,179.813263 328.913055,185.062988 320.443085,179.138367 
	C325.881378,174.659836 332.197937,170.542770 337.075378,165.129135 
	C341.736359,159.955765 348.069214,154.773026 345.854309,146.291550 
	C345.370636,146.033646 344.886963,145.775742 344.403290,145.517853 
	C343.604095,146.938034 342.780487,148.345200 342.013702,149.782700 
	C341.434692,150.868286 340.928375,151.992676 339.967712,153.075790 
	C339.691498,152.093826 340.069061,151.100159 339.928192,150.186401 
	C339.722382,148.851273 339.144440,147.573517 338.725128,146.271301 
	C337.187012,146.952469 335.611267,147.561920 334.125305,148.342422 
	C333.270935,148.791183 332.562103,149.517044 331.395508,150.130127 
	C329.524902,150.044800 328.046539,149.947495 325.495117,149.779572 
	C326.395874,148.551727 326.834412,147.267853 327.528931,147.109970 
	C338.298828,144.661697 348.327850,131.921722 349.912048,122.236855 
	C350.189331,120.541695 349.204193,118.640030 348.831238,116.964493 
	C344.880829,117.647606 341.621277,118.211258 338.361725,118.774918 
	C338.138641,118.416962 337.915527,118.059006 337.692444,117.701050 
	C344.336273,112.748268 351.637848,108.230934 351.618347,98.162758 
	C353.979218,107.058441 359.340515,113.506111 367.670563,117.582764 
	C367.418701,117.935104 367.166870,118.287445 366.915009,118.639786 
	C365.872589,118.732231 364.830139,118.824684 363.397766,118.944244 
z"/>
<path fill="#B7B6B1" opacity="1.000000" stroke="none" 
	d="
M364.184326,178.944550 
	C366.300842,179.004089 368.417358,179.063629 370.812744,179.398560 
	C368.576019,181.083389 366.060425,182.492813 363.176392,183.979355 
	C362.202209,183.290985 361.596466,182.525513 360.993774,181.069244 
	C360.993286,179.623962 360.989716,178.869476 360.986145,178.114975 
	C361.442627,178.052307 361.899139,177.989655 362.844971,178.202560 
	C363.601654,178.662704 363.884979,178.818192 364.184326,178.944550 
z"/>
<path fill="#B7B6B1" opacity="1.000000" stroke="none" 
	d="
M335.987732,232.673584 
	C333.286743,233.462112 330.585785,234.250656 327.515137,235.042847 
	C326.439087,233.960022 325.732727,232.873550 325.010071,231.416473 
	C324.993805,231.045853 325.233307,230.822266 325.653564,230.770233 
	C326.374847,230.517700 326.675903,230.317184 326.976959,230.116669 
	C327.355743,229.837006 327.746490,229.301956 328.111420,229.318985 
	C330.532288,229.431992 332.947601,229.663315 335.573059,230.197235 
	C335.850159,231.250076 335.918945,231.961838 335.987732,232.673584 
z"/>
<path fill="#ABA9A5" opacity="1.000000" stroke="none" 
	d="
M357.415894,128.875381 
	C356.231049,125.854141 355.387299,122.696571 354.739716,119.265556 
	C356.067902,120.283119 357.199951,121.574135 358.655090,122.941254 
	C358.571106,124.924583 358.164062,126.831818 357.415894,128.875381 
z"/>
<path fill="#C7C6C1" opacity="1.000000" stroke="none" 
	d="
M336.335266,232.788483 
	C335.918945,231.961838 335.850159,231.250076 335.889221,230.335678 
	C338.761627,228.882736 341.526184,227.632446 344.290771,226.382141 
	C344.634644,227.063156 344.978485,227.744171 345.322357,228.425186 
	C342.442505,229.917908 339.562653,231.410629 336.335266,232.788483 
z"/>
<path fill="#C9C7C3" opacity="1.000000" stroke="none" 
	d="
M360.643341,178.157898 
	C360.989716,178.869476 360.993286,179.623962 360.977844,180.756149 
	C360.739380,180.156174 360.519958,179.178497 360.643341,178.157898 
z"/>
<path fill="#CBC9C4" opacity="1.000000" stroke="none" 
	d="
M326.677063,230.094131 
	C326.675903,230.317184 326.374847,230.517700 325.812653,230.809326 
	C325.826752,230.624176 326.101959,230.347885 326.677063,230.094131 
z"/>
<path fill="#C9C7C3" opacity="1.000000" stroke="none" 
	d="
M364.074097,178.696472 
	C363.884979,178.818192 363.601654,178.662704 363.180420,178.290726 
	C363.338959,178.218338 363.651428,178.333359 364.074097,178.696472 
z"/>
</svg>