<?xml version="1.0" standalone="no"?>
<!DOCTYPE svg PUBLIC "-//W3C//DTD SVG 20010904//EN"
 "http://www.w3.org/TR/2001/REC-SVG-20010904/DTD/svg10.dtd">
<svg version="1.0" xmlns="http://www.w3.org/2000/svg"
 width="1502.000000pt" height="688.000000pt" viewBox="0 0 1502.000000 688.000000"
 preserveAspectRatio="xMidYMid meet">

<g transform="translate(0.000000,688.000000) scale(0.100000,-0.100000)"
fill="#000000" stroke="none">
<path d="M0 3440 l0 -3440 7510 0 7510 0 0 3440 0 3440 -7510 0 -7510 0 0
-3440z m10580 3130 c0 -5 -4 -10 -10 -10 -5 0 -10 5 -10 10 0 6 5 10 10 10 6
0 10 -4 10 -10z m2720 2 c0 -13 -12 -22 -22 -16 -10 6 -1 24 13 24 5 0 9 -4 9
-8z m-7515 -62 c-3 -5 -10 -10 -16 -10 -5 0 -9 5 -9 10 0 6 7 10 16 10 8 0 12
-4 9 -10z m1555 -20 c0 -5 -4 -10 -10 -10 -5 0 -10 5 -10 10 0 6 5 10 10 10 6
0 10 -4 10 -10z m-1434 -27 c-10 -10 -19 5 -10 18 6 11 8 11 12 0 2 -7 1 -15
-2 -18z m1942 -70 c-2 -10 -10 -18 -18 -18 -8 0 -16 8 -18 18 -2 12 3 17 18
17 15 0 20 -5 18 -17z m5220 -94 c-2 -6 -8 -10 -13 -10 -5 0 -11 4 -13 10 -2
6 4 11 13 11 9 0 15 -5 13 -11z m-9798 -29 c0 -5 -4 -10 -10 -10 -5 0 -10 5
-10 10 0 6 5 10 10 10 6 0 10 -4 10 -10z m7020 0 c0 -5 -4 -10 -10 -10 -5 0
-10 5 -10 10 0 6 5 10 10 10 6 0 10 -4 10 -10z m323 -65 c1 -5 -6 -11 -15 -13
-11 -2 -18 3 -18 13 0 17 30 18 33 0z m1987 -65 c0 -5 -4 -10 -10 -10 -5 0
-10 5 -10 10 0 6 5 10 10 10 6 0 10 -4 10 -10z m-8860 -41 c0 -5 -7 -9 -15 -9
-15 0 -20 12 -9 23 8 8 24 -1 24 -14z m-40 -109 c0 -5 -4 -10 -10 -10 -5 0
-10 5 -10 10 0 6 5 10 10 10 6 0 10 -4 10 -10z m5000 -40 c0 -5 -4 -10 -10
-10 -5 0 -10 5 -10 10 0 6 5 10 10 10 6 0 10 -4 10 -10z m-4213 -79 c16 -9 16
-10 1 -11 -9 0 -20 -10 -24 -22 l-7 -23 -8 23 c-5 12 -16 22 -26 23 -15 0 -14
2 5 11 12 6 22 20 23 32 0 21 0 21 9 -1 5 -12 17 -26 27 -32z m923 -161 c0 -5
-4 -10 -10 -10 -5 0 -10 5 -10 10 0 6 5 10 10 10 6 0 10 -4 10 -10z m-80 -161
c0 -5 -4 -9 -10 -9 -5 0 -10 7 -10 16 0 8 5 12 10 9 6 -3 10 -10 10 -16z
m1354 -89 c72 -27 148 -100 184 -177 23 -50 27 -71 27 -153 0 -84 -3 -101 -28
-148 -63 -119 -166 -184 -302 -190 -65 -3 -92 1 -140 19 -75 28 -155 102 -192
178 -25 49 -28 68 -28 151 0 84 3 101 27 146 36 69 69 106 126 143 98 63 211
73 326 31z m7416 -65 c6 -16 18 -25 32 -26 22 -1 21 -1 -4 -10 -16 -6 -29 -21
-33 -37 l-8 -27 -6 25 c-4 14 -17 30 -29 36 l-23 11 21 6 c12 3 24 15 27 26 7
27 11 26 23 -4z m-2440 -65 c0 -5 -5 -10 -11 -10 -5 0 -7 5 -4 10 3 6 8 10 11
10 2 0 4 -4 4 -10z m-1492 -201 c-2 -6 -8 -10 -13 -10 -5 0 -11 4 -13 10 -2 6
4 11 13 11 9 0 15 -5 13 -11z m912 -60 c0 -5 -4 -9 -10 -9 -5 0 -10 7 -10 16
0 8 5 12 10 9 6 -3 10 -10 10 -16z m-2506 -107 c8 -13 -11 -35 -23 -28 -16 10
-14 36 3 36 8 0 17 -4 20 -8z m1116 -18 c0 -14 -21 -19 -33 -7 -9 9 13 34 24
27 5 -3 9 -12 9 -20z m-7052 4 c-6 -18 -25 -20 -31 -3 -5 10 0 15 14 15 12 0
19 -5 17 -12z m9352 -88 c0 -5 -4 -10 -10 -10 -5 0 -10 5 -10 10 0 6 5 10 10
10 6 0 10 -4 10 -10z m-6810 -151 c0 -5 -7 -9 -15 -9 -15 0 -20 12 -9 23 8 8
24 -1 24 -14z m-2350 -39 c0 -5 -4 -10 -10 -10 -5 0 -10 5 -10 10 0 6 5 10 10
10 6 0 10 -4 10 -10z m1740 -180 c0 -5 -4 -10 -10 -10 -5 0 -10 5 -10 10 0 6
5 10 10 10 6 0 10 -4 10 -10z m-2256 -91 c-3 -5 -10 -7 -15 -3 -5 3 -7 10 -3
15 3 5 10 7 15 3 5 -3 7 -10 3 -15z m5102 -76 c-10 -10 -19 5 -10 18 6 11 8
11 12 0 2 -7 1 -15 -2 -18z m2434 -4 c0 -5 -7 -9 -15 -9 -15 0 -20 12 -9 23 8
8 24 -1 24 -14z m-4146 -30 c-3 -5 -10 -7 -15 -3 -5 3 -7 10 -3 15 3 5 10 7
15 3 5 -3 7 -10 3 -15z m-1892 -21 c2 -15 15 -28 36 -37 l33 -15 -33 -10 c-25
-9 -34 -17 -36 -38 -4 -37 -18 -36 -25 2 -5 21 -14 31 -32 36 -28 7 -24 24 5
24 12 0 21 10 25 30 8 35 22 39 27 8z m1468 -18 c0 -5 -7 -10 -15 -10 -8 0
-15 5 -15 10 0 6 7 10 15 10 8 0 15 -4 15 -10z m5756 -97 c-10 -10 -19 5 -10
18 6 11 8 11 12 0 2 -7 1 -15 -2 -18z m-5681 -1 c0 -18 -20 -15 -23 4 -3 10 1
15 10 12 7 -3 13 -10 13 -16z m6215 9 c0 -6 -4 -13 -10 -16 -5 -3 -10 1 -10 9
0 9 5 16 10 16 6 0 10 -4 10 -9z m-9890 -41 c0 -5 -4 -10 -10 -10 -5 0 -10 5
-10 10 0 6 5 10 10 10 6 0 10 -4 10 -10z m5640 -61 c0 -5 -4 -9 -10 -9 -5 0
-10 7 -10 16 0 8 5 12 10 9 6 -3 10 -10 10 -16z m-4120 -33 c0 -11 -19 -15
-25 -6 -3 5 1 10 9 10 9 0 16 -2 16 -4z m6600 -56 c0 -5 -4 -10 -10 -10 -5 0
-10 5 -10 10 0 6 5 10 10 10 6 0 10 -4 10 -10z m-130 -40 c0 -5 -4 -10 -10
-10 -5 0 -10 5 -10 10 0 6 5 10 10 10 6 0 10 -4 10 -10z m2620 -91 c0 -5 -7
-9 -15 -9 -15 0 -20 12 -9 23 8 8 24 -1 24 -14z m-11062 -26 c-2 -10 -10 -18
-18 -18 -8 0 -16 8 -18 18 -2 12 3 17 18 17 15 0 20 -5 18 -17z m6142 -33 c0
-5 -7 -10 -15 -10 -8 0 -15 5 -15 10 0 6 7 10 15 10 8 0 15 -4 15 -10z m1020
-10 c0 -5 -4 -10 -10 -10 -5 0 -10 5 -10 10 0 6 5 10 10 10 6 0 10 -4 10 -10z
m780 -40 c0 -5 -4 -10 -10 -10 -5 0 -10 5 -10 10 0 6 5 10 10 10 6 0 10 -4 10
-10z m140 -30 c0 -5 -4 -10 -10 -10 -5 0 -10 5 -10 10 0 6 5 10 10 10 6 0 10
-4 10 -10z m-2360 -30 c0 -5 -4 -10 -10 -10 -5 0 -10 5 -10 10 0 6 5 10 10 10
6 0 10 -4 10 -10z m-1099 -63 c-1 -12 -15 -9 -19 4 -3 6 1 10 8 8 6 -3 11 -8
11 -12z m6869 -87 c0 -5 -5 -10 -11 -10 -5 0 -7 5 -4 10 3 6 8 10 11 10 2 0 4
-4 4 -10z m-9955 -30 c3 -5 -1 -10 -9 -10 -9 0 -16 5 -16 10 0 6 4 10 9 10 6
0 13 -4 16 -10z m6355 -120 c0 -5 -4 -10 -10 -10 -5 0 -10 5 -10 10 0 6 5 10
10 10 6 0 10 -4 10 -10z m-2820 -10 c0 -5 -4 -10 -10 -10 -5 0 -10 5 -10 10 0
6 5 10 10 10 6 0 10 -4 10 -10z m550 -99 c0 -14 -18 -23 -30 -16 -6 4 -8 11
-5 16 8 12 35 12 35 0z m4680 -1 c0 -5 -4 -10 -10 -10 -5 0 -10 5 -10 10 0 6
5 10 10 10 6 0 10 -4 10 -10z m-8782 -51 c-2 -6 -8 -10 -13 -10 -5 0 -11 4
-13 10 -2 6 4 11 13 11 9 0 15 -5 13 -11z m5812 1 c0 -5 -7 -10 -15 -10 -8 0
-15 5 -15 10 0 6 7 10 15 10 8 0 15 -4 15 -10z m-3968 -67 c143 -115 260 -215
333 -283 39 -36 104 -92 145 -124 41 -33 95 -78 120 -102 25 -24 58 -48 73
-53 62 -24 140 -6 193 44 36 34 54 43 54 27 0 -4 -20 -28 -45 -52 -61 -60 -59
-77 19 -153 124 -121 222 -207 271 -238 28 -17 88 -70 135 -118 89 -90 296
-261 316 -261 32 0 445 263 542 345 57 49 89 56 139 31 15 -8 48 -22 73 -30
25 -9 68 -34 95 -57 27 -23 80 -56 116 -75 36 -18 100 -59 140 -92 122 -96
120 -95 183 -82 31 6 66 8 78 4 13 -4 61 -44 108 -89 47 -45 105 -95 130 -110
25 -15 57 -38 71 -51 l26 -24 93 56 c51 30 119 73 149 93 83 56 116 71 158 71
45 0 142 -44 215 -98 29 -21 77 -55 106 -76 l53 -37 45 17 c49 19 68 37 70 68
1 12 5 29 9 38 11 26 -21 35 -45 13 -24 -22 -26 -35 -5 -35 21 0 19 -9 -7 -31
-51 -42 -63 -13 -22 56 14 25 23 49 20 54 -4 5 3 25 14 44 11 19 18 41 14 50
-3 10 2 21 15 29 16 10 21 23 21 59 0 33 6 51 20 64 20 18 20 17 20 -28 0 -25
5 -58 12 -74 15 -37 19 -93 7 -93 -19 0 -8 -16 26 -38 42 -27 44 -45 8 -58
l-28 -10 33 -17 c17 -10 32 -22 32 -27 0 -14 -5 -13 -51 10 -38 20 -64 19 -57
-2 2 -6 25 -17 52 -27 26 -9 47 -20 45 -26 -2 -5 -8 -9 -12 -7 -36 12 -98 3
-142 -21 l-50 -26 37 -1 c20 0 43 -3 51 -6 10 -3 17 3 21 20 6 25 8 25 30 11
12 -8 25 -13 28 -10 8 9 58 -13 58 -25 0 -8 -15 -9 -44 -5 -41 6 -44 5 -40
-12 3 -12 24 -26 51 -36 44 -17 45 -17 40 3 -3 11 -1 20 3 20 12 0 60 -82 54
-92 -3 -4 -34 9 -70 29 l-66 36 7 -34 c4 -19 12 -40 18 -47 5 -7 8 -14 6 -16
-2 -2 -49 -14 -104 -26 -55 -12 -129 -29 -165 -37 -54 -12 -80 -13 -157 -3
-65 9 -167 10 -351 5 l-258 -7 -93 32 c-106 36 -153 35 -275 -6 -95 -33 -174
-31 -306 5 -412 113 -702 202 -775 238 -27 14 -86 56 -130 92 -44 37 -96 78
-115 91 -77 52 -191 149 -300 255 -103 100 -129 118 -193 139 -9 3 -20 14 -24
23 -14 39 -48 76 -116 127 -80 59 -113 93 -146 149 -19 30 -28 37 -54 37 -79
0 -109 12 -171 69 -33 31 -95 83 -136 116 -41 33 -109 92 -150 131 -92 87
-361 307 -367 300 -3 -2 4 -44 15 -93 11 -48 24 -108 27 -133 13 -81 56 -203
109 -305 53 -103 62 -156 37 -204 -6 -11 -11 -38 -11 -60 0 -38 6 -46 81 -120
l82 -80 -7 -55 c-3 -31 -9 -81 -12 -111 -7 -61 -21 -41 117 -171 24 -22 81
-93 126 -158 l81 -117 29 26 c26 25 27 26 5 20 -23 -7 -23 -6 -8 24 10 18 12
32 6 36 -6 4 -3 20 9 43 10 20 24 74 31 120 13 78 28 107 32 60 5 -74 7 -106
7 -134 0 -22 6 -33 19 -36 14 -4 17 -15 16 -62 -1 -43 3 -60 16 -69 10 -7 17
-25 17 -44 0 -35 -16 -43 -37 -18 -7 8 -9 15 -6 15 4 0 -1 14 -11 30 -15 25
-15 32 -4 39 9 6 10 14 3 27 -5 11 -13 39 -17 63 -10 62 -24 33 -23 -49 0 -73
-13 -107 -63 -165 -20 -22 -26 -35 -17 -35 8 0 19 5 26 12 22 22 24 -1 3 -30
-19 -28 -66 -50 -79 -38 -3 3 3 15 13 26 18 19 17 20 -6 20 -21 0 -17 7 35 55
59 55 71 82 22 49 -15 -9 -28 -15 -30 -13 -1 2 -46 65 -98 139 -70 99 -113
149 -161 187 -76 61 -92 97 -77 173 5 25 9 67 10 94 0 49 -1 50 -75 119 -88
82 -95 103 -69 206 l18 70 -52 103 c-71 143 -88 190 -112 314 -30 158 -53 245
-65 241 -36 -12 -457 -502 -568 -662 -44 -64 -82 -104 -127 -138 -100 -74
-154 -131 -263 -277 -120 -160 -199 -245 -327 -350 -60 -50 -124 -115 -175
-179 -43 -56 -83 -101 -87 -101 -43 0 126 204 253 306 112 89 191 174 298 318
125 169 173 221 273 297 59 45 95 84 155 168 158 220 549 661 586 661 9 0 54
-30 99 -67z m7179 14 c-1 -12 -15 -9 -19 4 -3 6 1 10 8 8 6 -3 11 -8 11 -12z
m1759 -47 c0 -5 -4 -10 -10 -10 -5 0 -10 5 -10 10 0 6 5 10 10 10 6 0 10 -4
10 -10z m-10108 -25 c0 -5 -5 -11 -11 -13 -6 -2 -11 4 -11 13 0 9 5 15 11 13
6 -2 11 -8 11 -13z m8778 11 c0 -3 -4 -8 -10 -11 -5 -3 -10 -1 -10 4 0 6 5 11
10 11 6 0 10 -2 10 -4z m-4740 -91 c0 -8 -4 -15 -10 -15 -5 0 -10 7 -10 15 0
8 5 15 10 15 6 0 10 -7 10 -15z m-5210 -34 c0 -6 -4 -13 -10 -16 -5 -3 -10 1
-10 9 0 9 5 16 10 16 6 0 10 -4 10 -9z m6960 -61 c0 -5 -2 -10 -4 -10 -3 0 -8
5 -11 10 -3 6 -1 10 4 10 6 0 11 -4 11 -10z m981 -76 l34 -11 -34 -10 c-28 -7
-37 -16 -44 -44 l-10 -34 -14 33 c-7 18 -20 35 -28 37 -50 16 -50 17 -15 29
26 10 36 20 43 47 l10 34 11 -34 c9 -26 21 -38 47 -47z m-7631 -4 c0 -5 -7
-10 -16 -10 -8 0 -12 5 -9 10 3 6 10 10 16 10 5 0 9 -4 9 -10z m6360 1 c0 -6
-4 -13 -10 -16 -5 -3 -10 1 -10 9 0 9 5 16 10 16 6 0 10 -4 10 -9z m1880 -31
c0 -5 -4 -10 -10 -10 -5 0 -10 5 -10 10 0 6 5 10 10 10 6 0 10 -4 10 -10z
m-5126 -131 c-3 -5 -10 -7 -15 -3 -5 3 -7 10 -3 15 3 5 10 7 15 3 5 -3 7 -10
3 -15z m2821 -9 c3 -5 1 -10 -4 -10 -6 0 -11 5 -11 10 0 6 2 10 4 10 3 0 8 -4
11 -10z m-285 -86 c0 -8 -4 -12 -10 -9 -5 3 -10 10 -10 16 0 5 5 9 10 9 6 0
10 -7 10 -16z m4020 -19 c0 -8 -4 -15 -9 -15 -13 0 -22 16 -14 24 11 11 23 6
23 -9z m-500 -206 c0 -5 -7 -9 -15 -9 -15 0 -20 12 -9 23 8 8 24 -1 24 -14z
m-9772 0 c-2 -6 -8 -10 -13 -10 -5 0 -11 4 -13 10 -2 6 4 11 13 11 9 0 15 -5
13 -11z m11062 -149 c0 -5 -7 -10 -16 -10 -8 0 -12 5 -9 10 3 6 10 10 16 10 5
0 9 -4 9 -10z m-3516 -51 c-3 -5 -10 -7 -15 -3 -5 3 -7 10 -3 15 3 5 10 7 15
3 5 -3 7 -10 3 -15z m3526 -79 c0 -5 -4 -10 -10 -10 -5 0 -10 5 -10 10 0 6 5
10 10 10 6 0 10 -4 10 -10z m-10136 -59 c-6 -54 -3 -66 25 -124 35 -72 36 -77
18 -77 -7 0 -24 22 -38 50 -13 27 -27 50 -30 50 -4 0 -10 -24 -13 -52 -11 -86
-16 -100 -31 -88 -10 8 -15 7 -19 -7 -43 -150 -51 -167 -132 -293 -157 -245
-202 -286 -375 -341 -131 -41 -322 -80 -333 -69 -12 12 -12 12 164 55 151 37
224 61 290 95 69 35 169 162 289 365 16 28 43 95 59 150 16 55 47 150 67 210
21 61 39 116 41 123 2 6 8 12 14 12 7 0 9 -19 4 -59z m-594 -11 c0 -5 -4 -10
-10 -10 -5 0 -10 5 -10 10 0 6 5 10 10 10 6 0 10 -4 10 -10z m8945 -60 c3 -5
1 -10 -4 -10 -6 0 -11 5 -11 10 0 6 2 10 4 10 3 0 8 -4 11 -10z m-5631 -250
c3 -17 24 -60 46 -97 41 -68 47 -83 32 -83 -5 0 -17 18 -27 40 -29 64 -42 68
-48 15 -3 -27 -18 -67 -36 -97 -18 -28 -30 -55 -28 -61 2 -6 12 3 22 21 10 17
25 34 32 37 14 5 15 2 29 -50 17 -63 17 -266 0 -293 -20 -33 -26 -3 -23 126 2
75 1 148 -2 162 l-7 24 -16 -23 c-11 -15 -15 -34 -11 -56 3 -18 0 -41 -6 -53
-8 -16 -5 -43 14 -121 14 -55 25 -109 25 -120 0 -17 6 -20 33 -18 17 1 36 7
40 12 5 6 7 2 5 -9 -5 -29 -32 -42 -64 -31 -25 9 -29 17 -40 81 -20 120 -40
165 -59 134 -5 -8 -11 -7 -21 1 -16 14 -20 149 -4 149 6 0 10 -19 10 -42 0
-48 12 -74 29 -64 16 10 14 58 -4 83 -16 23 -8 61 27 118 23 38 24 67 2 58
-15 -5 -15 -3 0 25 12 23 13 31 3 35 -9 3 -9 11 2 38 7 19 16 46 18 62 7 36
19 34 27 -3z m3891 -22 c3 -13 4 -45 3 -72 -3 -47 -1 -51 29 -70 35 -23 42
-36 18 -36 -12 0 -13 -4 -3 -25 6 -14 8 -28 4 -33 -11 -10 -69 57 -63 72 5 13
-9 44 -16 36 -8 -10 -15 -130 -7 -130 4 0 13 7 20 15 17 21 40 19 40 -4 0 -17
20 -33 45 -35 6 -1 10 -15 10 -33 0 -17 4 -35 8 -39 16 -16 7 -35 -13 -29 -12
4 -20 2 -20 -5 0 -17 118 -67 227 -95 213 -56 407 -55 456 1 15 18 23 21 29
12 4 -7 5 -21 2 -30 -6 -21 16 -24 34 -6 18 18 14 -3 -5 -24 -17 -19 -49 -24
-55 -9 -2 6 -27 3 -58 -5 -107 -30 -293 -5 -515 66 -65 22 -121 38 -123 36 -1
-2 7 -22 18 -44 26 -49 21 -62 -25 -60 l-34 1 15 29 c13 25 13 31 0 56 l-15
27 -1 -49 c0 -40 -3 -47 -16 -42 -9 4 -22 1 -30 -5 -7 -6 -25 -9 -41 -7 l-28
3 -1 115 c0 98 2 118 18 136 13 14 20 42 24 88 3 40 12 79 24 98 12 20 17 41
13 59 -10 51 20 85 32 37z m-3673 -148 c2 -16 -2 -25 -12 -28 -13 -2 -16 10
-18 65 -2 94 10 126 20 48 4 -33 8 -71 10 -85z m3452 26 c-8 -21 -20 -20 -29
2 -6 13 -10 7 -15 -23 -9 -47 1 -58 44 -49 21 5 27 3 24 -7 -3 -8 -21 -15 -44
-16 -21 -1 -44 -2 -50 -2 -5 -1 -10 -16 -11 -35 l-1 -33 38 9 c26 7 40 17 44
31 4 16 8 19 17 10 17 -17 1 -73 -20 -73 -10 0 -21 -3 -24 -6 -4 -4 -23 -8
-42 -10 -32 -3 -35 -1 -30 16 4 14 2 20 -9 20 -23 0 -20 28 8 60 13 16 26 48
30 72 4 23 12 55 19 70 l12 28 22 -25 c13 -14 20 -31 17 -39z m-3138 -37 c-3
-15 -1 -31 4 -34 6 -3 10 -19 10 -34 0 -16 7 -34 15 -41 9 -7 13 -20 10 -28
-3 -8 1 -25 9 -37 16 -24 12 -37 -9 -29 -17 7 -28 -29 -20 -65 4 -19 17 -33
40 -44 19 -9 35 -23 35 -32 0 -22 -10 -19 -42 12 -26 25 -28 25 -28 6 0 -12
15 -32 35 -47 19 -15 35 -34 35 -42 0 -9 10 -14 28 -14 36 0 60 -16 46 -30 -8
-8 -32 -7 -84 1 -41 6 -96 9 -122 7 -49 -5 -57 -1 -37 19 8 8 5 13 -10 18 -25
7 -27 23 -6 31 20 8 19 34 -2 34 -14 0 -14 2 2 20 14 15 18 39 19 108 2 76 5
93 25 117 15 20 21 38 17 55 -6 30 14 91 27 83 5 -3 6 -18 3 -34z m-866 -3 c0
-6 16 -27 35 -46 20 -19 34 -41 33 -50 -1 -8 1 -21 5 -27 10 -16 7 -16 -34 2
-19 8 -28 14 -21 15 9 0 2 15 -17 39 -29 37 -39 70 -25 84 9 9 24 -2 24 -17z
m490 -61 c0 -25 -26 -36 -28 -12 0 6 -4 32 -7 57 l-7 45 21 -33 c12 -18 21
-44 21 -57z m87 -5 c-3 -11 -1 -23 4 -26 5 -3 9 -11 9 -19 0 -10 -9 -12 -34
-8 -41 6 -76 -11 -76 -39 0 -19 1 -20 25 -4 25 16 27 16 45 -6 11 -13 19 -26
20 -30 0 -5 4 -8 9 -8 5 0 7 10 4 23 -5 20 -4 21 10 7 9 -8 20 -31 23 -50 l7
-35 -25 17 c-21 14 -28 15 -37 4 -21 -25 -17 -60 7 -71 12 -5 22 -15 22 -21 0
-7 11 -22 25 -35 28 -27 32 -44 11 -52 -10 -4 -16 2 -18 15 -2 12 -11 26 -21
32 -15 9 -21 7 -36 -13 l-18 -24 -7 37 c-6 30 -11 36 -24 31 -9 -4 -28 -10
-41 -13 -20 -4 -22 -2 -16 17 4 13 2 21 -6 21 -9 0 -9 3 0 14 9 11 9 15 0 18
-8 3 -5 17 10 46 19 37 20 43 6 48 -14 6 -14 9 0 30 12 18 12 24 3 24 -7 0 -4
6 6 12 10 6 32 26 48 44 34 39 74 47 65 14z m-587 -59 c0 -15 11 -42 25 -61
28 -38 25 -52 -5 -25 -20 18 -20 17 -20 -8 0 -14 11 -39 25 -55 14 -17 25 -33
25 -37 0 -4 -11 0 -25 9 l-25 16 0 -80 c0 -47 -4 -80 -10 -80 -9 0 -14 41 -14
133 0 20 -2 37 -4 37 -2 0 -18 -11 -34 -25 -47 -40 -47 -20 0 28 51 52 57 75
7 27 -43 -42 -46 -26 -5 25 21 26 30 49 30 74 0 20 -4 31 -8 26 -4 -6 -24 -21
-44 -35 -45 -30 -49 -43 -10 -34 l27 5 -24 -20 c-27 -24 -91 -30 -72 -8 6 8 9
16 6 19 -12 12 131 110 148 101 4 -2 7 -17 7 -32z m94 -44 c8 -14 8 -20 -4
-27 -22 -14 -35 -7 -38 24 -3 22 0 27 14 24 9 -1 22 -11 28 -21z m3860 -59 c3
-17 2 -36 -4 -42 -5 -5 -10 -32 -10 -58 0 -59 -16 -63 -23 -5 -3 23 -9 57 -13
76 -5 27 -3 37 12 48 26 19 31 17 38 -19z m1152 -37 c7 -57 8 -57 184 -113
l105 -32 265 -3 c278 -2 408 -11 400 -28 -3 -5 -23 -9 -45 -8 -22 2 -168 4
-325 6 l-285 4 -124 36 c-68 20 -134 43 -147 52 -19 12 -23 12 -28 0 -3 -8
-11 -15 -19 -15 -9 0 -12 11 -9 36 3 26 1 35 -7 30 -14 -9 -15 23 -1 58 15 40
29 31 36 -23z m-4153 25 c21 -16 23 -46 2 -46 -14 0 -35 29 -35 49 0 14 11 13
33 -3z m-322 -43 c0 -5 2 -16 4 -25 2 -10 0 -20 -5 -23 -12 -8 -33 23 -26 40
6 15 25 21 27 8z m-383 -72 c12 -7 12 -12 0 -30 -11 -18 -11 -23 2 -31 13 -8
13 -10 -2 -10 -26 0 -49 39 -37 62 11 20 18 22 37 9z m472 -77 c0 -19 10 -18
26 4 10 13 13 14 14 3 0 -19 -29 -51 -47 -51 -8 0 -13 12 -13 36 0 21 4 33 10
29 6 -3 10 -13 10 -21z m-228 -14 c12 -11 28 -20 35 -20 7 0 13 -4 13 -9 0
-20 -74 -29 -85 -10 -7 11 2 59 11 59 2 0 14 -9 26 -20z m5816 5 c6 -3 12 -9
12 -15 0 -8 -18 -9 -57 -4 -66 7 -76 11 -67 25 5 9 76 5 112 -6z m452 -3 c25
-4 40 -10 34 -14 -18 -12 -258 -11 -262 0 -6 18 141 27 228 14z m-5565 -22 c4
-6 -8 -10 -29 -10 -20 0 -36 5 -36 10 0 6 13 10 29 10 17 0 33 -4 36 -10z m99
-6 c9 -3 16 -10 16 -16 0 -14 -43 -5 -48 10 -4 13 7 15 32 6z"/>
<path d="M6748 2143 c-57 -50 -205 -149 -386 -258 -61 -37 -114 -71 -117 -75
-7 -11 127 -126 176 -151 57 -29 247 -94 374 -128 61 -16 196 -54 300 -84 105
-31 191 -51 193 -46 8 21 -22 80 -54 109 -19 16 -38 30 -43 30 -4 0 -18 19
-31 43 -13 23 -54 74 -92 114 -81 85 -111 144 -138 279 -40 192 -51 214 -101
214 -20 0 -45 -15 -81 -47z"/>
<path d="M6924 2138 c4 -13 16 -67 27 -121 36 -176 79 -256 183 -342 31 -25
46 -45 46 -61 0 -13 8 -31 18 -39 79 -67 93 -85 109 -130 l19 -50 62 -3 c46
-2 74 2 109 18 27 12 82 26 123 31 68 9 80 8 125 -11 97 -42 180 -50 399 -38
153 9 224 9 310 -1 95 -10 122 -10 186 4 106 22 116 25 99 35 -11 7 -10 12 4
28 18 20 22 33 10 31 -30 -5 -31 4 -4 30 41 39 40 54 -3 46 -36 -7 -65 9 -226
126 -94 67 -162 99 -213 99 -38 0 -60 -11 -158 -74 -63 -40 -145 -91 -182
-111 l-68 -38 -37 35 c-20 19 -57 47 -82 62 -25 16 -77 61 -116 101 -79 83
-105 94 -175 76 -58 -15 -63 -13 -174 75 -43 35 -114 82 -156 104 -43 22 -96
56 -120 76 -75 63 -126 81 -115 42z"/>
<path d="M8790 1845 l-23 -25 27 0 c28 0 46 24 29 41 -6 6 -18 0 -33 -16z"/>
<path d="M8810 1786 c0 -8 7 -17 16 -20 24 -9 54 -7 54 3 0 12 -8 16 -42 25
-21 5 -28 3 -28 -8z"/>
<path d="M8802 1513 c-11 -21 -23 -49 -27 -62 -7 -23 -6 -24 35 -17 24 4 47 9
51 12 9 5 -18 91 -32 99 -4 3 -17 -11 -27 -32z"/>
<path d="M9433 1377 c-8 -18 -8 -28 0 -36 7 -7 7 -17 -1 -35 -8 -19 -8 -27 3
-36 25 -21 36 -2 29 53 -9 70 -17 84 -31 54z"/>
<path d="M9490 1376 c0 -22 16 -36 41 -36 15 0 10 26 -9 43 -25 23 -32 21 -32
-7z"/>
<path d="M9494 1294 c3 -9 6 -18 6 -20 0 -2 9 -4 20 -4 24 0 27 25 4 34 -26
10 -36 7 -30 -10z"/>
<path d="M9420 1214 c-15 -40 -12 -64 8 -64 27 0 42 20 42 57 0 26 -4 33 -20
33 -13 0 -24 -10 -30 -26z"/>
<path d="M6117 1384 c-4 -4 -7 -18 -7 -31 0 -28 23 -27 28 1 4 20 -11 40 -21
30z"/>
<path d="M6101 1248 c-10 -27 -9 -35 4 -44 20 -15 19 -27 -5 -49 -26 -23 -25
-35 1 -35 18 0 19 -2 9 -15 -10 -12 -10 -15 2 -15 17 0 28 47 28 117 0 75 -20
96 -39 41z"/>
<path d="M6166 1104 c-8 -20 -8 -19 22 -28 25 -8 31 11 10 32 -16 16 -25 15
-32 -4z"/>
<path d="M5778 1303 c-11 -11 -15 -27 -11 -41 11 -44 37 -17 31 33 -3 27 -3
27 -20 8z"/>
<path d="M5769 1208 c-10 -18 -9 -20 6 -15 9 4 19 7 21 7 2 0 4 7 4 15 0 22
-18 18 -31 -7z"/>
</g>
</svg>
