<?xml version="1.0" standalone="no"?>
<!DOCTYPE svg PUBLIC "-//W3C//DTD SVG 20010904//EN"
 "http://www.w3.org/TR/2001/REC-SVG-20010904/DTD/svg10.dtd">
<svg version="1.0" xmlns="http://www.w3.org/2000/svg"
 width="600.000000pt" height="428.000000pt" viewBox="0 0 600.000000 428.000000"
 preserveAspectRatio="xMidYMid meet">

<g transform="translate(0.000000,428.000000) scale(0.100000,-0.100000)"
fill="#000000" stroke="none">
<path d="M3368 3108 c6 -6 18 -8 28 -6 14 3 12 5 -9 10 -19 3 -25 2 -19 -4z"/>
<path d="M3532 3090 c0 -14 2 -19 5 -12 2 6 2 18 0 25 -3 6 -5 1 -5 -13z"/>
<path d="M3427 3039 c6 -23 9 -24 16 -5 3 8 0 17 -7 19 -10 4 -12 -1 -9 -14z"/>
<path d="M3620 2906 c0 -2 8 -10 18 -17 15 -13 16 -12 3 4 -13 16 -21 21 -21
13z"/>
<path d="M3570 2856 c0 -2 8 -10 18 -17 15 -13 16 -12 3 4 -13 16 -21 21 -21
13z"/>
<path d="M3635 2810 c26 -11 45 -12 45 -2 0 4 -15 8 -33 9 -26 1 -28 0 -12 -7z"/>
<path d="M3355 2797 c-4 -10 -5 -21 -1 -24 10 -10 18 4 13 24 -4 17 -4 17 -12
0z"/>
<path d="M3381 2744 c0 -11 3 -14 6 -6 3 7 2 16 -1 19 -3 4 -6 -2 -5 -13z"/>
<path d="M3708 2753 c7 -3 16 -2 19 1 4 3 -2 6 -13 5 -11 0 -14 -3 -6 -6z"/>
<path d="M3670 2605 c19 -19 36 -35 39 -35 3 0 -10 16 -29 35 -19 19 -36 35
-39 35 -3 0 10 -16 29 -35z"/>
<path d="M3193 2513 c-20 -8 -15 -23 7 -23 11 0 20 -4 20 -10 0 -5 9 -10 20
-10 11 0 20 5 20 10 0 6 -7 10 -16 10 -8 0 -12 5 -8 11 4 8 -1 9 -16 4 -15 -5
-20 -4 -16 4 8 12 7 12 -11 4z"/>
<path d="M3250 2516 c0 -2 9 -6 20 -9 11 -3 18 -1 14 4 -5 9 -34 13 -34 5z"/>
<path d="M3358 2483 c7 -3 16 -2 19 1 4 3 -2 6 -13 5 -11 0 -14 -3 -6 -6z"/>
<path d="M3758 2483 c6 -2 18 -2 25 0 6 3 1 5 -13 5 -14 0 -19 -2 -12 -5z"/>
<path d="M3671 2457 c2 -1 13 -9 24 -17 19 -14 19 -14 6 3 -7 9 -18 17 -24 17
-6 0 -8 -1 -6 -3z"/>
<path d="M3795 2180 c-4 -6 5 -10 19 -10 14 0 26 5 26 10 0 6 -9 10 -19 10
-11 0 -23 -4 -26 -10z"/>
<path d="M3738 2173 c7 -3 16 -2 19 1 4 3 -2 6 -13 5 -11 0 -14 -3 -6 -6z"/>
<path d="M3650 2152 c0 -16 30 -62 40 -62 4 0 10 7 13 14 4 9 1 13 -6 10 -7
-2 -20 8 -29 23 -10 16 -18 22 -18 15z"/>
<path d="M3750 2076 c0 -2 7 -9 15 -16 9 -7 15 -8 15 -2 0 5 -7 12 -15 16 -8
3 -15 4 -15 2z"/>
<path d="M3648 2023 c7 -3 16 -2 19 1 4 3 -2 6 -13 5 -11 0 -14 -3 -6 -6z"/>
<path d="M3894 1972 c3 -5 0 -13 -6 -15 -8 -3 -6 -6 5 -6 19 -1 23 14 5 25 -6
4 -8 3 -4 -4z"/>
<path d="M5928 1903 c12 -2 30 -2 40 0 9 3 -1 5 -23 4 -22 0 -30 -2 -17 -4z"/>
<path d="M3873 1893 c9 -2 25 -2 35 0 9 3 1 5 -18 5 -19 0 -27 -2 -17 -5z"/>
<path d="M5805 1890 c-17 -7 -15 -9 13 -9 17 -1 32 4 32 9 0 12 -17 12 -45 0z"/>
<path d="M3493 1830 c0 -36 2 -50 4 -32 2 17 2 47 0 65 -2 17 -4 3 -4 -33z"/>
<path d="M3350 1860 c-8 -15 -8 -18 3 -14 8 3 14 11 14 19 0 20 -4 19 -17 -5z"/>
<path d="M3437 1873 c-9 -9 -7 -92 3 -123 6 -17 8 -1 7 53 -1 42 -2 77 -2 77
-1 0 -5 -3 -8 -7z"/>
<path d="M5680 1873 c-81 -13 -264 -44 -370 -64 -30 -5 -74 -12 -98 -16 -23
-3 -59 -14 -80 -25 -25 -13 -29 -17 -12 -13 49 13 117 26 225 46 61 10 130 24
155 29 25 6 87 17 139 25 52 8 97 17 99 20 6 5 -18 5 -58 -2z"/>
<path d="M3878 1863 c7 -3 16 -2 19 1 4 3 -2 6 -13 5 -11 0 -14 -3 -6 -6z"/>
<path d="M3775 1840 c-3 -5 -1 -10 4 -10 6 0 11 5 11 10 0 6 -2 10 -4 10 -3 0
-8 -4 -11 -10z"/>
<path d="M3856 1841 c-4 -5 3 -7 14 -4 23 6 26 13 6 13 -8 0 -17 -4 -20 -9z"/>
<path d="M5047 1763 c-4 -4 -29 -10 -55 -14 -26 -5 -65 -12 -87 -16 -36 -8
-38 -9 -16 -16 14 -3 31 -1 39 5 7 7 32 13 55 14 72 3 78 4 73 13 -4 5 0 12 6
14 7 3 8 6 2 6 -6 1 -14 -2 -17 -6z"/>
<path d="M3493 1685 c0 -27 2 -38 4 -22 2 15 2 37 0 50 -2 12 -4 0 -4 -28z"/>
<path d="M4790 1711 l-35 -7 30 -6 c18 -4 40 -1 55 8 21 11 22 13 5 12 -11 0
-36 -4 -55 -7z"/>
<path d="M4680 1691 l-45 -7 35 -5 c19 -2 46 1 60 8 26 13 22 14 -50 4z"/>
<path d="M3452 1665 c0 -16 2 -22 5 -12 2 9 2 23 0 30 -3 6 -5 -1 -5 -18z"/>
<path d="M4528 1663 c7 -3 16 -2 19 1 4 3 -2 6 -13 5 -11 0 -14 -3 -6 -6z"/>
<path d="M4633 1663 c9 -2 23 -2 30 0 6 3 -1 5 -18 5 -16 0 -22 -2 -12 -5z"/>
<path d="M4433 1643 c9 -2 23 -2 30 0 6 3 -1 5 -18 5 -16 0 -22 -2 -12 -5z"/>
<path d="M2698 1623 c6 -2 18 -2 25 0 6 3 1 5 -13 5 -14 0 -19 -2 -12 -5z"/>
<path d="M4308 1623 c6 -2 18 -2 25 0 6 3 1 5 -13 5 -14 0 -19 -2 -12 -5z"/>
<path d="M2588 1613 c7 -3 16 -2 19 1 4 3 -2 6 -13 5 -11 0 -14 -3 -6 -6z"/>
<path d="M2503 1603 c9 -2 23 -2 30 0 6 3 -1 5 -18 5 -16 0 -22 -2 -12 -5z"/>
<path d="M4178 1603 c6 -2 18 -2 25 0 6 3 1 5 -13 5 -14 0 -19 -2 -12 -5z"/>
<path d="M2668 1583 c7 -3 16 -2 19 1 4 3 -2 6 -13 5 -11 0 -14 -3 -6 -6z"/>
<path d="M3868 1553 c7 -3 16 -2 19 1 4 3 -2 6 -13 5 -11 0 -14 -3 -6 -6z"/>
<path d="M4038 1553 c7 -3 16 -2 19 1 4 3 -2 6 -13 5 -11 0 -14 -3 -6 -6z"/>
<path d="M4498 1433 c7 -3 16 -2 19 1 4 3 -2 6 -13 5 -11 0 -14 -3 -6 -6z"/>
<path d="M5920 1430 c20 -13 70 -13 70 0 0 6 -19 10 -42 10 -32 0 -39 -3 -28
-10z"/>
<path d="M4588 1423 c7 -3 16 -2 19 1 4 3 -2 6 -13 5 -11 0 -14 -3 -6 -6z"/>
<path d="M5663 1423 c9 -2 23 -2 30 0 6 3 -1 5 -18 5 -16 0 -22 -2 -12 -5z"/>
<path d="M5583 1413 c9 -2 23 -2 30 0 6 3 -1 5 -18 5 -16 0 -22 -2 -12 -5z"/>
<path d="M4878 1403 c6 -2 18 -2 25 0 6 3 1 5 -13 5 -14 0 -19 -2 -12 -5z"/>
<path d="M5303 1403 c9 -2 25 -2 35 0 9 3 1 5 -18 5 -19 0 -27 -2 -17 -5z"/>
<path d="M5683 1403 c9 -2 23 -2 30 0 6 3 -1 5 -18 5 -16 0 -22 -2 -12 -5z"/>
<path d="M5028 1393 c45 -2 119 -2 165 0 45 1 8 3 -83 3 -91 0 -128 -2 -82 -3z"/>
<path d="M5583 1393 c15 -2 37 -2 50 0 12 2 0 4 -28 4 -27 0 -38 -2 -22 -4z"/>
<path d="M5338 1383 c6 -2 18 -2 25 0 6 3 1 5 -13 5 -14 0 -19 -2 -12 -5z"/>
<path d="M5218 1373 c6 -2 18 -2 25 0 6 3 1 5 -13 5 -14 0 -19 -2 -12 -5z"/>
<path d="M878 1113 c7 -3 16 -2 19 1 4 3 -2 6 -13 5 -11 0 -14 -3 -6 -6z"/>
<path d="M835 1101 c-3 -5 -2 -12 3 -15 5 -3 9 1 9 9 0 17 -3 19 -12 6z"/>
<path d="M765 1081 c-3 -5 -2 -12 3 -15 5 -3 9 1 9 9 0 17 -3 19 -12 6z"/>
<path d="M690 1055 c-9 -10 -22 -14 -36 -11 -13 4 -26 2 -29 -4 -10 -16 47
-11 69 5 11 8 17 17 14 20 -3 3 -11 -2 -18 -10z"/>
<path d="M540 1020 c-12 -7 -8 -10 15 -10 17 0 37 5 45 10 12 7 8 10 -15 10
-16 0 -37 -5 -45 -10z"/>
<path d="M455 1000 c-16 -7 -13 -9 17 -9 20 -1 40 4 43 9 7 12 -32 12 -60 0z"/>
</g>
</svg>
